<?xml version="1.0" encoding="UTF-8" standalone="no"?>
<!DOCTYPE svg PUBLIC "-//W3C//DTD SVG 20010904//EN"
              "http://www.w3.org/TR/2001/REC-SVG-20010904/DTD/svg10.dtd">

<svg xmlns="http://www.w3.org/2000/svg"
     width="5in" height="2.5in"
     viewBox="0 0 1500 750">
  <path id="Android"
        fill="none" stroke="black" stroke-width="1"
        d="M 435.00,216.00
           C 435.00,216.00 416.85,184.00 416.85,184.00
             416.85,184.00 376.42,114.00 376.42,114.00
             376.42,114.00 369.58,102.00 369.58,102.00
             364.33,92.96 358.49,83.85 369.04,75.42
             374.80,70.81 383.37,71.20 388.67,76.34
             391.16,78.75 395.09,85.75 396.91,89.00
             396.91,89.00 445.35,173.00 445.35,173.00
             445.35,173.00 457.58,194.00 457.58,194.00
             459.06,196.55 460.60,200.26 464.04,200.30
             464.04,200.30 487.00,191.53 487.00,191.53
             487.00,191.53 538.00,175.73 538.00,175.73
             558.61,170.31 579.88,167.85 601.00,165.83
             601.00,165.83 623.00,164.00 623.00,164.00
             623.00,164.00 661.00,164.00 661.00,164.00
             661.00,164.00 683.00,165.83 683.00,165.83
             683.00,165.83 700.00,167.28 700.00,167.28
             724.68,170.36 749.24,175.93 773.00,183.20
             773.00,183.20 807.00,195.45 807.00,195.45
             809.85,196.59 818.27,200.79 820.90,200.23
             823.85,199.59 826.15,194.49 827.58,192.00
             827.58,192.00 840.99,169.00 840.99,169.00
             840.99,169.00 879.00,103.00 879.00,103.00
             882.46,96.99 892.40,78.16 897.09,74.88
             909.02,66.53 926.22,78.81 919.02,94.00
             919.02,94.00 905.28,118.00 905.28,118.00
             905.28,118.00 866.58,185.00 866.58,185.00
             866.58,185.00 849.00,216.00 849.00,216.00
             856.68,218.82 871.79,228.53 879.00,233.33
             898.20,246.11 916.12,260.21 933.00,275.91
             989.20,328.19 1026.28,390.74 1048.04,464.00
             1054.15,484.57 1062.98,526.10 1063.00,547.00
             1063.00,547.00 221.00,547.00 221.00,547.00
             221.02,526.10 229.85,484.57 235.96,464.00
             257.72,390.74 294.80,328.19 351.00,275.91
             367.88,260.21 385.80,246.11 405.00,233.33
             412.21,228.53 427.32,218.82 435.00,216.00 Z
           M 443.00,357.30
           C 427.11,360.30 414.21,372.11 414.00,389.00
             413.96,392.31 413.82,397.93 414.53,401.00
             417.65,414.59 431.12,425.83 445.00,426.00
             454.21,426.11 457.65,426.43 466.00,421.66
             484.36,411.20 488.79,384.97 474.79,369.01
             466.34,359.38 455.43,356.06 443.00,357.30 Z
           M 830.00,357.32
           C 818.61,359.87 809.01,365.98 804.17,377.00
             794.78,398.40 808.18,425.70 833.00,426.00
             840.77,426.09 844.86,426.51 852.00,422.68
             872.64,411.60 876.86,382.58 859.83,366.30
             851.60,358.44 841.01,356.12 830.00,357.32 Z" />
</svg>
