<?xml version="1.0" encoding="UTF-8" standalone="no"?>
<!DOCTYPE svg PUBLIC "-//W3C//DTD SVG 20010904//EN"
              "http://www.w3.org/TR/2001/REC-SVG-20010904/DTD/svg10.dtd">

<svg xmlns="http://www.w3.org/2000/svg"
     width="5in" height="2.5in"
     viewBox="0 0 1500 750">
  <path id="Glasses"
        fill="none" stroke="black" stroke-width="1"
        d="M 339.00,248.80
           C 346.74,247.48 352.58,248.66 360.00,248.80
             360.00,248.80 386.00,248.80 386.00,248.80
             386.00,248.80 401.00,250.00 401.00,250.00
             401.00,250.00 416.00,250.00 416.00,250.00
             416.00,250.00 426.00,250.91 426.00,250.91
             426.00,250.91 450.00,252.00 450.00,252.00
             450.00,252.00 473.00,253.91 473.00,253.91
             512.54,256.63 549.50,263.74 588.00,272.88
             588.00,272.88 646.00,287.34 646.00,287.34
             646.00,287.34 687.00,294.42 687.00,294.42
             698.70,296.24 714.39,298.98 726.00,299.00
             726.00,299.00 773.00,299.00 773.00,299.00
             773.00,299.00 783.00,298.00 783.00,298.00
             783.00,298.00 792.00,298.00 792.00,298.00
             792.00,298.00 808.00,296.17 808.00,296.17
             826.06,294.42 844.23,292.47 862.00,288.58
             862.00,288.58 894.00,280.37 894.00,280.37
             919.58,273.90 944.96,267.80 971.00,263.43
             997.78,258.94 1024.98,256.76 1052.00,254.91
             1052.00,254.91 1062.00,254.00 1062.00,254.00
             1062.00,254.00 1082.00,252.96 1082.00,252.96
             1082.00,252.96 1098.00,252.96 1098.00,252.96
             1098.00,252.96 1110.00,252.00 1110.00,252.00
             1110.00,252.00 1149.00,252.00 1149.00,252.00
             1149.00,252.00 1161.00,252.96 1161.00,252.96
             1161.00,252.96 1173.00,252.96 1173.00,252.96
             1173.00,252.96 1194.00,254.00 1194.00,254.00
             1194.00,254.00 1204.00,254.91 1204.00,254.91
             1204.00,254.91 1244.00,257.83 1244.00,257.83
             1244.00,257.83 1319.00,265.16 1319.00,265.16
             1319.00,265.16 1371.00,271.85 1371.00,271.85
             1371.00,271.85 1408.00,276.75 1408.00,276.75
             1411.83,277.39 1418.87,277.77 1421.57,280.43
             1425.32,284.12 1425.99,296.76 1426.00,302.00
             1426.00,302.00 1426.00,318.00 1426.00,318.00
             1425.82,332.54 1414.09,341.20 1405.90,352.00
             1396.73,364.09 1390.39,379.15 1387.40,394.00
             1387.40,394.00 1377.58,456.00 1377.58,456.00
             1371.08,492.00 1362.85,527.65 1350.05,562.00
             1339.81,589.48 1324.35,620.93 1301.00,639.49
             1278.68,657.23 1261.48,659.98 1235.00,665.88
             1217.39,669.81 1187.68,674.97 1170.00,675.00
             1170.00,675.00 1158.00,675.00 1158.00,675.00
             1158.00,675.00 1141.00,676.00 1141.00,676.00
             1141.00,676.00 1075.00,676.00 1075.00,676.00
             1063.51,675.86 1052.28,672.95 1041.00,671.08
             990.97,662.80 948.29,646.63 911.00,610.96
             887.23,588.22 865.46,552.78 851.32,523.00
             837.58,494.06 825.96,463.68 816.72,433.00
             813.47,422.21 806.81,395.81 800.61,388.00
             793.37,378.88 783.07,374.92 772.00,372.80
             752.68,369.11 723.39,372.81 710.38,389.00
             699.13,402.99 693.25,436.31 686.58,454.00
             686.58,454.00 671.86,490.00 671.86,490.00
             657.23,525.39 642.16,558.59 618.34,589.00
             581.32,636.25 538.91,654.86 482.00,667.42
             465.43,671.08 449.06,674.97 432.00,675.00
             432.00,675.00 347.00,675.00 347.00,675.00
             347.00,675.00 327.00,672.17 327.00,672.17
             327.00,672.17 278.00,665.55 278.00,665.55
             256.72,661.29 232.09,653.78 214.00,641.64
             185.06,622.23 168.90,589.02 158.00,557.00
             148.23,528.33 141.82,505.92 136.42,476.00
             136.42,476.00 128.43,426.00 128.43,426.00
             128.43,426.00 123.58,395.00 123.58,395.00
             119.89,378.17 116.80,365.12 106.10,351.00
             96.43,338.23 83.23,335.29 83.00,316.00
             83.00,316.00 83.00,307.00 83.00,307.00
             83.03,301.48 83.89,285.20 86.72,281.04
             90.46,275.56 98.80,273.01 105.00,271.66
             105.00,271.66 147.00,264.73 147.00,264.73
             147.00,264.73 248.00,253.83 248.00,253.83
             248.00,253.83 286.00,250.91 286.00,250.91
             286.00,250.91 296.00,250.00 296.00,250.00
             296.00,250.00 317.00,248.80 317.00,248.80
             317.00,248.80 339.00,248.80 339.00,248.80 Z
           M 196.00,318.00
           C 221.32,325.41 237.31,351.42 251.72,372.00
             251.72,372.00 294.10,428.00 294.10,428.00
             308.98,447.66 323.39,468.07 336.42,489.00
             336.42,489.00 356.58,522.00 356.58,522.00
             362.23,531.88 367.12,540.48 362.37,552.00
             360.49,556.56 358.49,558.51 355.03,561.91
             352.27,564.64 348.58,568.54 345.00,569.99
             342.68,570.93 340.46,570.99 338.00,570.99
             322.64,571.02 309.77,558.70 301.16,547.00
             288.60,529.94 272.96,495.18 263.69,475.00
             252.55,450.74 230.17,409.36 215.78,387.00
             210.96,379.51 200.12,363.12 191.00,361.41
             185.64,360.40 180.77,364.51 177.09,367.87
             167.25,376.89 167.07,380.63 165.83,393.00
             165.83,393.00 165.00,411.00 165.00,411.00
             165.00,411.00 165.91,421.00 165.91,421.00
             165.91,421.00 170.85,469.00 170.85,469.00
             176.91,519.61 187.34,583.91 228.00,618.70
             244.07,632.45 264.83,636.93 285.00,640.80
             315.38,646.63 346.11,649.64 377.00,650.00
             377.00,650.00 391.00,650.96 391.00,650.96
             391.00,650.96 404.00,650.00 404.00,650.00
             445.13,649.94 498.93,643.75 535.00,623.13
             566.94,604.87 590.83,574.82 608.30,543.00
             620.52,520.74 634.31,489.50 640.85,465.00
             646.32,444.48 648.65,423.09 650.09,402.00
             650.09,402.00 651.00,392.00 651.00,392.00
             651.18,375.92 651.68,358.51 643.69,344.00
             637.37,332.52 626.39,325.46 615.00,319.75
             597.12,310.79 577.29,304.07 558.00,298.85
             477.96,277.17 387.06,272.02 305.00,282.72
             279.29,286.07 250.24,291.43 226.00,300.58
             216.04,304.33 202.55,309.35 196.00,318.00 Z
           M 1297.00,312.00
           C 1291.40,306.05 1280.59,304.31 1273.00,301.59
             1252.67,294.29 1214.02,287.58 1192.00,284.72
             1171.91,282.10 1151.25,280.03 1131.00,280.00
             1131.00,280.00 1114.00,279.00 1114.00,279.00
             1059.22,278.91 1008.28,284.30 955.00,297.63
             933.72,302.95 912.38,310.37 893.00,320.71
             883.46,325.79 871.65,333.45 866.21,343.00
             859.31,355.10 857.84,381.93 858.00,396.00
             858.00,396.00 858.91,406.00 858.91,406.00
             860.89,434.86 867.61,460.83 877.31,488.00
             884.58,508.38 893.28,528.03 903.70,547.00
             925.39,586.52 951.13,614.63 993.00,633.14
             1038.06,653.05 1101.23,652.57 1150.00,652.00
             1150.00,652.00 1160.00,651.09 1160.00,651.09
             1160.00,651.09 1203.00,646.27 1203.00,646.27
             1234.06,641.79 1268.66,636.48 1290.90,612.00
             1295.44,607.00 1304.12,592.32 1307.11,586.00
             1323.78,550.78 1332.78,512.46 1338.13,474.00
             1338.13,474.00 1342.09,435.00 1342.09,435.00
             1342.09,435.00 1343.04,425.00 1343.04,425.00
             1343.04,425.00 1343.04,411.00 1343.04,411.00
             1343.04,411.00 1344.00,399.00 1344.00,399.00
             1344.00,399.00 1344.00,385.00 1344.00,385.00
             1343.86,376.98 1341.64,379.26 1334.01,373.32
             1325.81,366.93 1317.38,350.39 1307.00,355.32
             1302.05,357.67 1296.80,365.34 1293.91,370.00
             1293.91,370.00 1274.75,406.00 1274.75,406.00
             1274.75,406.00 1246.69,465.00 1246.69,465.00
             1246.69,465.00 1228.86,503.00 1228.86,503.00
             1228.86,503.00 1214.92,534.00 1214.92,534.00
             1211.44,541.58 1208.64,548.77 1202.91,555.00
             1197.14,561.27 1187.57,568.89 1179.00,570.66
             1176.41,571.03 1167.33,571.40 1164.83,570.66
             1153.67,568.06 1142.38,554.91 1143.32,543.00
             1145.02,521.56 1163.40,497.59 1175.00,480.00
             1175.00,480.00 1222.48,408.00 1222.48,408.00
             1222.48,408.00 1252.58,362.00 1252.58,362.00
             1264.25,344.88 1277.89,321.38 1297.00,312.00 Z" />
</svg>
